<?xml version="1.0" encoding="utf-8"?>
<!-- Generator: Adobe Illustrator 23.0.4, SVG Export Plug-In . SVG Version: 6.00 Build 0)  -->
<svg version="1.1" id="Layer_1" xmlns="http://www.w3.org/2000/svg" xmlns:xlink="http://www.w3.org/1999/xlink" x="0px" y="0px"
	 viewBox="0 0 48 48" style="enable-background:new 0 0 48 48;" xml:space="preserve">
<style type="text/css">
	.st0{fill:#EDF4FD;}
	.st1{fill:#43A047;}
	.st2{fill:#FFFFFF;}
</style>
<path class="st0" d="M44,20v-7c0-2.2-1.8-4-4-4h-5.5c0,0.8-0.7,1.5-1.5,1.5S31.5,9.8,31.5,9H8c-2.2,0-4,1.8-4,4v7c2.2,0,4,1.8,4,4
	s-1.8,4-4,4v7c0,2.2,1.8,4,4,4h23.5c0-0.8,0.7-1.5,1.5-1.5s1.5,0.7,1.5,1.5H40c2.2,0,4-1.8,4-4v-7c-2.2,0-4-1.8-4-4S41.8,20,44,20z
	 M33,35.5c-0.8,0-1.5-0.7-1.5-1.5s0.7-1.5,1.5-1.5s1.5,0.7,1.5,1.5S33.8,35.5,33,35.5z M33,30.5c-0.8,0-1.5-0.7-1.5-1.5
	s0.7-1.5,1.5-1.5s1.5,0.7,1.5,1.5S33.8,30.5,33,30.5z M33,25.5c-0.8,0-1.5-0.7-1.5-1.5s0.7-1.5,1.5-1.5s1.5,0.7,1.5,1.5
	S33.8,25.5,33,25.5z M33,20.5c-0.8,0-1.5-0.7-1.5-1.5s0.7-1.5,1.5-1.5s1.5,0.7,1.5,1.5S33.8,20.5,33,20.5z M33,15.5
	c-0.8,0-1.5-0.7-1.5-1.5s0.7-1.5,1.5-1.5s1.5,0.7,1.5,1.5S33.8,15.5,33,15.5z"/>
<circle class="st1" cx="38" cy="38" r="10"/>
<g>
	<rect x="36" y="32" class="st2" width="4" height="12"/>
	<rect x="32" y="36" class="st2" width="12" height="4"/>
</g>
</svg>
